<svg id="Layer_1" data-name="Layer 1" xmlns="http://www.w3.org/2000/svg" viewBox="0 0 4268.28 4291.68"><defs><style>.cls-1{fill:#e32029;}.cls-2{fill:#e42027;}.cls-3{fill:#fff;}</style></defs><title>1</title><path class="cls-1" d="M2809.86,4979.47c-511.84,0-1023.69,1.5-1535.53-.5-369.32-1.45-539.92-177.59-539.24-549.43q.51-272.73.53-545.47c-.15-301.49,185.64-491.31,489.69-492.89,431.47-2.24,863-.41,1294.44-.44q932.74-.07,1865.51-.26c321.7,0,501.82,178.88,503.83,500.85q1.74,279.18.86,558.37c-.75,347.46-181.11,529.55-531.84,530.92-516.08,2-1032.16.52-1548.25.52Zm296.47-1168.78c0,97.88.77,194.54-.14,291.19-2.5,263.35-39.45,313-291.34,388v217.44c200.2,20.15,348.74-38.14,446.23-190,41.35-64.43,86.56-77.88,155-77.26,291.71,2.6,583.5-1.67,875.18,2.29,91.73,1.25,115.35-36.18,113.21-121-2-80.71-5-140.89-112.63-134.5-120.05,7.12-240.84,1.63-365.49,1.63,44.8-202.3,98.58-233.8,351.68-246.84,42.59-2.19,50.55-64.47,92.13-86.5-35.14-60.8-28.7-142.64-74.17-151.71-227.52-45.42-514.84,36.84-600.25,335.76-13.56,47.46-22.26,96.3-32.51,141.43H3361.49c0-72.07-.24-135.18.05-198.29,1-209.93,1-210-212.81-189.39C3141,3793.67,3133.65,3799,3106.33,3810.69Zm-1959.18,39c-34,340.91,164.74,578.29,484.89,587.75,172.8,5.1,346,4.48,518.82-.75,210.44-6.37,377-119.74,430.28-311.49,81.19-292,71.62-306.85-230.74-268.62-4.92,27.67-10.84,56.34-15,85.26-29.54,204-80.5,248-289.77,248.61-71.72.2-143.43-.47-215.15-.56-346.2-.42-346.2-.4-429.84-340.2Zm619.95,909.62h229.56c21.42-182.34-27.45-221.4-229.56-184.15Z" transform="translate(-695.46 -690)"/><path class="cls-1" d="M2447,2586.23C2266.82,2789.17,2074.87,2967,1820.85,3000c-307.39,39.87-621.74,36.22-932.85,32.53-132.74-1.58-200.54-114-191.79-251.26,8.38-131.44,98.78-223.83,239.64-228.54,126.56-4.23,253.56,6,380.39,8.31,242.62,4.53,484.28,5.26,682.86-169.48,142-125,236.09-268.05,234.82-469.49-2-312.85,6.83-625.94,19.64-938.57,2.94-71.87,26-152,65.47-211.36,78-117.36,248-106.85,315.11,18.13,32.21,60,47.15,135.82,48.18,204.81,4.55,304.51,1.14,609.13.69,913.72-.53,359.67,254.51,640.46,613.55,663.31,189.68,12.07,380.78,15.26,570.67,7.83,356.86-14,636.93-327.14,633.58-696.21-3.24-356.53-276.18-655-625.11-679.06-151.73-10.44-304-12.25-456-19.31-148.31-6.89-228.76-85.11-235-226-6.23-141.15,67.43-239.75,214.65-244.67,290.89-9.72,586.45-24.46,863,91.22,649.92,271.87,895.05,1055.74,535.15,1685.5-221.9,388.28-563.07,580.64-999.69,581.73-272.09.67-548.44-25.85-815.19-78.83C2757.41,2949.57,2599.34,2774.3,2447,2586.23Z" transform="translate(-695.46 -690)"/><path class="cls-2" d="M4155.33,1894.88c-.54,308.39-244.3,555.13-542.68,549.31-300.42-5.86-552.67-260.57-547.51-552.84,5.38-305,246.09-537.23,556.66-537.09C3921,1354.39,4155.85,1592.32,4155.33,1894.88Zm-415.4-223.05c-166-79.94-289.34-53.29-373.58,65.51-77.41,109.16-67.52,249.92,24.4,347.23,97.25,103,219.11,113.8,347.27,30.85-180.43,6.33-290.26-70.75-296.47-208.07C3435.17,1766.41,3522.29,1693,3739.93,1671.83Z" transform="translate(-695.46 -690)"/><path class="cls-1" d="M1615,1560.64c0,207.07,1,414.15-.35,621.21-.83,131.29-82.89,231.33-193.57,240.88-109.49,9.44-200.81-64.9-230.62-192.07-8.56-36.56-10-75.41-10.12-113.22q-1.85-551.48-1.33-1103c.1-50.27,2.81-102.26,15.62-150.45,33.14-124.6,112.58-179.62,230.94-168.46,101.25,9.55,187.4,103.2,189.23,218.52,3.42,215.47,1,431,1,646.55Z" transform="translate(-695.46 -690)"/><path class="cls-3" d="M3106.33,3810.69c27.32-11.66,34.64-17,42.4-17.77,213.85-20.62,213.78-20.54,212.81,189.39-.29,63.11-.05,126.22-.05,198.29H3663.2c10.25-45.13,19-94,32.51-141.43,24.38-85.31,65.2-153,116.38-205.06,119.57-121.68,346.94-214.85,483.87-130.7,39.22,24.09,91.48,75.17,85.87,129.7-5.86,57-72.22,91.88-103.83,108.51-119.52,62.88-201.38,4.12-269.65,64.71-40.34,35.8-62.07,92-82,182.13,124.65,0,245.44,5.49,365.49-1.63,107.59-6.39,110.59,53.79,112.63,134.5,2.14,84.83-21.48,122.26-113.21,121-291.68-4-583.47.31-875.18-2.29-68.41-.62-113.62,12.83-155,77.26-97.49,151.9-246,210.19-446.23,190V4489.91c251.89-75,288.84-124.69,291.34-388C3107.1,4005.23,3106.33,3908.57,3106.33,3810.69Z" transform="translate(-695.46 -690)"/><path class="cls-3" d="M1147.15,3849.71h253.47c83.64,339.8,83.64,339.78,429.84,340.2,71.72.09,143.43.76,215.15.56,209.27-.58,260.23-44.57,289.77-248.61,4.18-28.92,10.1-57.59,15-85.26,302.36-38.23,311.93-23.41,230.74,268.62-53.31,191.75-219.84,305.12-430.28,311.49-172.81,5.23-346,5.85-518.82.75C1311.89,4428,1113.18,4190.62,1147.15,3849.71Z" transform="translate(-695.46 -690)"/><path class="cls-3" d="M1767.1,4759.33V4575.18c202.11-37.25,251,1.81,229.56,184.15Z" transform="translate(-695.46 -690)"/><path class="cls-3" d="M3739.93,1671.83c-17.75-.22-180.9.21-259.19,118.78-11.82,17.91-44.86,68-38.07,135.4,6.83,67.81,49.57,110.27,63.38,124,87,86.4,214.68,68.18,232,65.43-128.16,82.95-250,72.12-347.27-30.85-63-66.7-73.33-144.1-75.74-169.78-2.21-23.5-8.55-104,43.95-182.7,11.2-16.78,52.86-77.33,132.86-104.38C3618,1585,3728.37,1663.34,3739.93,1671.83Z" transform="translate(-695.46 -690)"/><polygon class="cls-3" points="3355.07 1293.07 3253.14 1274.7 3204.17 1365.97 3190.14 1263.35 3088.2 1244.98 3181.47 1199.92 3167.43 1097.3 3239.11 1172.08 3332.37 1127.02 3283.4 1218.29 3355.07 1293.07"/></svg>